<svg xmlns="http://www.w3.org/2000/svg" viewBox="0 0 32 32" width="32" height="32">
  <defs>
    <linearGradient id="trophy-grad" x1="0%" y1="0%" x2="100%" y2="100%">
      <stop offset="0%" stop-color="#3B82F6"/>
      <stop offset="100%" stop-color="#1D4ED8"/>
    </linearGradient>
    <linearGradient id="gold-grad" x1="0%" y1="0%" x2="100%" y2="100%">
      <stop offset="0%" stop-color="#F59E0B"/>
      <stop offset="100%" stop-color="#D97706"/>
    </linearGradient>
  </defs>

  <!-- Background rounded pill -->
  <rect width="32" height="32" rx="8" fill="#0F172A"/>

  <!-- Trophy cup outline & body -->
  <path d="M10 8h12v7a6 6 0 0 1-12 0V8z" fill="url(#gold-grad)"/>

  <!-- Handles -->
  <path d="M10 10H7a2 2 0 0 0-2 2v1a3 3 0 0 0 3 3h2" fill="none" stroke="url(#gold-grad)" stroke-width="2" stroke-linecap="round"/>
  <path d="M22 10h3a2 2 0 0 1 2 2v1a3 3 0 0 1-3 3h-2" fill="none" stroke="url(#gold-grad)" stroke-width="2" stroke-linecap="round"/>

  <!-- Stem and Base -->
  <path d="M16 21v4" stroke="url(#gold-grad)" stroke-width="2" stroke-linecap="round"/>
  <path d="M11 25h10" stroke="url(#gold-grad)" stroke-width="2.5" stroke-linecap="round"/>

  <!-- Star accent inside cup -->
  <polygon points="16,10 17.2,12.4 19.8,12.8 17.9,14.7 18.4,17.3 16,16 13.6,17.3 14.1,14.7 12.2,12.8 14.8,12.4" fill="#FFF" opacity="0.9"/>
</svg>
